name rise49.8558peak67.6521fall70.3087.mot
datacolumns 19
datarows 29
range 19.23493100000000 19.28159300000000
endheader
time	ground_force1_vx	ground_force1_vy	ground_force1_vz	ground_force1_px	ground_force1_py	ground_force1_pz	ground_force2_vx	ground_force2_vy	ground_force2_vz	ground_force2_px	ground_force2_py	ground_force2_pz	ground_torque1_x	ground_torque1_y	ground_torque1_z	ground_torque2_x	ground_torque2_y	ground_torque2_z	
19.23493100000000	-47.81353100000000	781.80275800000004	54.67690500000000	0.15458500000000	0.00000000000000	0.09369800000000	-3.17820500000000	11.24804800000000	2.24185500000000	0.00000000000000	0.00000000000000	0.00000000000000	0.00000000000000	23.36699700000000	0.00000000000000	0.00000000000000	0.82639500000000	0.00000000000000	
19.23659800000000	-47.83497100000000	778.90748099999996	54.44197600000000	0.15387200000000	0.00000000000000	0.09372800000000	-4.22049000000000	16.11100100000000	3.04555100000000	0.00000000000000	0.00000000000000	0.00000000000000	0.00000000000000	23.19782600000000	0.00000000000000	0.00000000000000	1.12955100000000	0.00000000000000	
19.23826100000000	-47.86200600000000	775.93883200000005	54.18449000000000	0.15316900000000	0.00000000000000	0.09375300000000	-5.31241900000000	21.58922100000000	3.90918100000000	0.00000000000000	0.00000000000000	0.00000000000000	0.00000000000000	23.02656600000000	0.00000000000000	0.00000000000000	1.45754100000000	0.00000000000000	
19.23992700000000	-47.89501600000000	772.89730799999995	53.90431400000000	0.15247700000000	0.00000000000000	0.09377500000000	-6.41333300000000	27.58364000000000	4.80628100000000	0.33765400000000	0.00000000000000	-0.07425300000000	0.00000000000000	22.85338500000000	0.00000000000000	0.00000000000000	2.94760600000000	0.00000000000000	
19.24159200000000	-47.93437700000000	769.78337299999998	53.60135400000000	0.15179800000000	0.00000000000000	0.09379300000000	-7.48046800000000	33.97732500000000	5.70821000000000	0.34347400000000	0.00000000000000	-0.07489600000000	0.00000000000000	22.67845200000000	0.00000000000000	0.00000000000000	3.54990700000000	0.00000000000000	
19.24326200000000	-47.98046300000000	766.59745199999998	53.27556000000000	0.15113200000000	0.00000000000000	0.09380700000000	-8.47215200000000	40.64557000000000	6.58633500000000	0.34902700000000	0.00000000000000	-0.07545000000000	0.00000000000000	22.50193700000000	0.00000000000000	0.00000000000000	4.15256000000000	0.00000000000000	
19.24493100000000	-48.03364200000000	763.33992300000000	52.92692000000000	0.15048000000000	0.00000000000000	0.09381600000000	-9.35080200000000	47.46627500000000	7.41414100000000	0.35434200000000	0.00000000000000	-0.07593200000000	0.00000000000000	22.32401100000000	0.00000000000000	0.00000000000000	4.73879300000000	0.00000000000000	
19.24659400000000	-48.09427400000000	760.01112000000001	52.55546800000000	0.14984400000000	0.00000000000000	0.09382000000000	-10.08537000000000	54.32921600000000	8.16899400000000	0.35944200000000	0.00000000000000	-0.07635400000000	0.00000000000000	22.14484300000000	0.00000000000000	0.00000000000000	5.29365100000000	0.00000000000000	
19.24826000000000	-48.16271200000000	756.61132099999998	52.16127800000000	0.14922400000000	0.00000000000000	0.09382000000000	-10.65298100000000	61.14324000000000	8.83340100000000	0.36434600000000	0.00000000000000	-0.07672600000000	0.00000000000000	21.96460200000000	0.00000000000000	0.00000000000000	5.80490200000000	0.00000000000000	
19.24992400000000	-48.23929800000000	753.14074500000004	51.74446700000000	0.14862300000000	0.00000000000000	0.09381400000000	-11.03968900000000	67.84085800000000	9.39566000000000	0.36906900000000	0.00000000000000	-0.07705500000000	0.00000000000000	21.78345300000000	0.00000000000000	0.00000000000000	6.26360500000000	0.00000000000000	
19.25159900000000	-48.32435900000000	749.59955300000001	51.30519100000000	0.14803900000000	0.00000000000000	0.09380400000000	-11.24038600000000	74.38018000000000	9.84994800000000	0.37362300000000	0.00000000000000	-0.07734800000000	0.00000000000000	21.60155800000000	0.00000000000000	0.00000000000000	6.66432300000000	0.00000000000000	
19.25326300000000	-48.41821000000000	745.98784000000001	50.84365100000000	0.14747500000000	0.00000000000000	0.09378700000000	-11.25801800000000	80.74442200000000	10.19591600000000	0.37801600000000	0.00000000000000	-0.07761100000000	0.00000000000000	21.41907500000000	0.00000000000000	0.00000000000000	7.00502200000000	0.00000000000000	
19.25492600000000	-48.52114500000000	742.30563099999995	50.36008400000000	0.14693100000000	0.00000000000000	0.09376600000000	-11.10226300000000	86.93942900000000	10.43789500000000	0.38225800000000	0.00000000000000	-0.07784800000000	0.00000000000000	21.23615600000000	0.00000000000000	0.00000000000000	7.28670100000000	0.00000000000000	
19.25659100000000	-48.63343900000000	738.55288099999996	49.85477200000000	0.14640700000000	0.00000000000000	0.09373800000000	-10.78788900000000	92.98975700000000	10.58386400000000	0.38635500000000	0.00000000000000	-0.07806300000000	0.00000000000000	21.05295000000000	0.00000000000000	0.00000000000000	7.51283700000000	0.00000000000000	
19.25826400000000	-48.75534200000000	734.72947199999999	49.32803000000000	0.14590500000000	0.00000000000000	0.09370500000000	-10.33298400000000	98.93390100000001	10.64429200000000	0.39031200000000	0.00000000000000	-0.07826000000000	0.00000000000000	20.86959600000000	0.00000000000000	0.00000000000000	7.68871600000000	0.00000000000000	
19.25992700000000	-48.88708000000000	730.83520799999997	48.78021600000000	0.14542400000000	0.00000000000000	0.09366600000000	-9.75721000000000	104.81919600000001	10.63098000000000	0.39413500000000	0.00000000000000	-0.07844100000000	0.00000000000000	20.68622700000000	0.00000000000000	0.00000000000000	7.82072500000000	0.00000000000000	
19.26159100000000	-49.02884700000000	726.86981700000001	48.21172400000000	0.14496500000000	0.00000000000000	0.09362100000000	-9.08023900000000	110.69688400000000	10.55599800000000	0.39782800000000	0.00000000000000	-0.07860900000000	0.00000000000000	20.50296900000000	0.00000000000000	0.00000000000000	7.91567600000000	0.00000000000000	
19.26325900000000	-49.18080700000000	722.83294799999999	47.62298300000000	0.14452700000000	0.00000000000000	0.09356900000000	-8.32045000000000	116.61768200000000	10.43077200000000	0.40139300000000	0.00000000000000	-0.07876600000000	0.00000000000000	20.31994000000000	0.00000000000000	0.00000000000000	7.98020300000000	0.00000000000000	
19.26492800000000	-49.34308600000000	718.72417099999996	47.01445600000000	0.14411200000000	0.00000000000000	0.09351200000000	-7.49395200000000	122.62814800000000	10.26539100000000	0.40483400000000	0.00000000000000	-0.07891300000000	0.00000000000000	20.13724600000000	0.00000000000000	0.00000000000000	8.02027900000000	0.00000000000000	
19.26659600000000	-49.51577100000000	714.54297699999995	46.38664400000000	0.14371900000000	0.00000000000000	0.09344800000000	-6.61395000000000	128.76795100000001	10.06812800000000	0.40815400000000	0.00000000000000	-0.07905200000000	0.00000000000000	19.95498600000000	0.00000000000000	0.00000000000000	8.04085500000000	0.00000000000000	
19.26826000000000	-49.69890800000000	710.28877599999998	45.74007600000000	0.14334900000000	0.00000000000000	0.09337900000000	-5.69043300000000	135.06812099999999	9.84517900000000	0.41135500000000	0.00000000000000	-0.07918400000000	0.00000000000000	19.77325000000000	0.00000000000000	0.00000000000000	8.04565200000000	0.00000000000000	
19.26992900000000	-49.89249600000000	705.96090100000004	45.07531300000000	0.14300000000000	0.00000000000000	0.09330300000000	-4.73017100000000	141.55021700000000	9.60061400000000	0.41443900000000	0.00000000000000	-0.07931100000000	0.00000000000000	19.59211400000000	0.00000000000000	0.00000000000000	8.03707300000000	0.00000000000000	
19.27159500000000	-50.09648500000000	701.55860700000005	44.39294800000000	0.14267300000000	0.00000000000000	0.09322100000000	-3.73694100000000	148.22631899999999	9.33648700000000	0.41740800000000	0.00000000000000	-0.07943300000000	0.00000000000000	19.41164700000000	0.00000000000000	0.00000000000000	8.01623500000000	0.00000000000000	
19.27325700000000	-50.31077200000000	697.08107500000006	43.69360000000000	0.14236700000000	0.00000000000000	0.09313300000000	-2.71194500000000	155.09968799999999	9.05308000000000	0.42026400000000	0.00000000000000	-0.07955100000000	0.00000000000000	19.23190500000000	0.00000000000000	0.00000000000000	7.98309500000000	0.00000000000000	
19.27492700000000	-50.53520000000000	692.52740900000003	42.97791300000000	0.14208200000000	0.00000000000000	0.09303900000000	-1.65433400000000	162.16593100000000	8.74923400000000	0.42300900000000	0.00000000000000	-0.07966700000000	0.00000000000000	19.05293500000000	0.00000000000000	0.00000000000000	7.93664500000000	0.00000000000000	
19.27659000000000	-50.76955100000000	687.89664600000003	42.24656100000000	0.14181700000000	0.00000000000000	0.09293800000000	-0.56179500000000	169.41446999999999	8.42272500000000	0.42564500000000	0.00000000000000	-0.07978000000000	0.00000000000000	18.87477000000000	0.00000000000000	0.00000000000000	7.87513900000000	0.00000000000000	
19.27825700000000	-51.01354900000000	683.18775400000004	41.50023700000000	0.14157200000000	0.00000000000000	0.09283200000000	0.56885900000000	176.83017699999999	8.07066000000000	0.42817200000000	0.00000000000000	-0.07989200000000	0.00000000000000	18.69743500000000	0.00000000000000	0.00000000000000	7.79635200000000	0.00000000000000	
19.27993400000000	-51.26684900000000	678.39963699999998	40.73965800000000	0.14134600000000	0.00000000000000	0.09272000000000	1.74114900000000	184.39499799999999	7.68983700000000	0.43059200000000	0.00000000000000	-0.08000200000000	0.00000000000000	18.52094200000000	0.00000000000000	0.00000000000000	7.69781800000000	0.00000000000000	
19.28159300000000	-51.52904300000000	673.53113900000005	39.96556100000000	0.14113800000000	0.00000000000000	0.09260200000000	2.95845700000000	192.08946399999999	7.27707600000000	0.43290700000000	0.00000000000000	-0.08011100000000	0.00000000000000	18.34529000000000	0.00000000000000	0.00000000000000	7.57705400000000	0.00000000000000	
